<svg version="1.1" viewBox="0 0 600 600" xmlns="http://www.w3.org/2000/svg">
 <g>
  <g>
   <path transform="scale(1,-1)" d="m439.35-438.42a160 160.01 0 0 0-24.518-32.795c5.1625-2.2001 10.238-4.6807 15.172-7.5293 43.344-25.026 70-71.2 70-121.25h40c0 64.279-34.336 123.75-90 155.89-3.5017 2.0219-7.0561 3.9161-10.654 5.6836zm-225.26-56.203c-21.792-30.192-34.09-66.921-34.09-105.38h40c0 32.562 11.339 63.439 31.156 87.963a160 160.01 0 0 0-31.156 13.463 160 160.01 0 0 0-5.9102 3.9492z" color="#000000" style="-inkscape-stroke:none"/>
   <path d="m433.43 476.65c-1.0172 0.02882-2.0586 0.3885-3.1211 1.2266-21 22.284-47 40.183-76.494 49.053-25.946 8.7977-54.087 9.6185-80.557 6.4199-11.421-1.2424-22.326-5.6058-33.531-7.3555-7.5898 2.429-9.0237 11.99-12.666 18.127-7.5292 17.523-11.52 36.922-10.953 55.883h288.19c0.75952-3.9749-1.0069-9.4146-0.72461-13.191-3.3517-42.194-27.05-81.584-61.703-105.6-2.554-1.77-5.3898-4.647-8.4414-4.5606z"/>
  </g>
  <path transform="scale(-1,1)" d="m-140 360a160 160.01 0 0 1-80 138.57 160 160.01 0 0 1-160-1e-5 160 160.01 0 0 1-80-138.57" fill="none" stroke="#000" stroke-width="40"/>
  <path d="m440 361v-122h40v122z"/>
  <path transform="scale(-1)" d="m-140-240a160 100.01 0 0 1-80 86.613 160 100.01 0 0 1-160 0 160 100.01 0 0 1-80-86.613" fill="none" stroke="#000" stroke-width="40"/>
  <g fill="none" stroke="#000" stroke-width="40">
   <circle cx="160" cy="300" r="60"/>
   <g>
    <circle transform="rotate(90)" cx="300" cy="-340" r="60"/>
    <path d="m340 240h-180"/>
    <path d="m220 300h60"/>
   </g>
  </g>
  <g>
   <path d="m320 440-80 1e-5 1e-5 -40 80-1e-5z"/>
   <path d="m360 400a40 40 0 0 1-20 34.641 40 40 0 0 1-40 0 40 40 0 0 1-20-34.641"/>
  </g>
  <rect x="120" y="240" width="80" height="40"/>
  <rect x="300" y="240" width="80" height="40"/>
 </g>
 <g display="none">
  <rect x="120" y="320" width="80" height="40"/>
  <rect x="300" y="320" width="80" height="40"/>
  <rect transform="rotate(-30)" x="104.45" y="449.81" width="80" height="40"/>
  <rect transform="matrix(-.86603 -.5 -.5 .86603 0 0)" x="-328.56" y="199.81" width="80" height="40" display="inline"/>
 </g>
 <g transform="matrix(1 0 0 -1 -4.641 611.96)" display="none">
  <rect transform="rotate(30)" x="414.45" y="117.85" width="80" height="40"/>
  <rect transform="matrix(-.86603 .5 .5 .86603 0 0)" x="-26.603" y="372.49" width="80" height="40" display="inline"/>
 </g>
</svg>
