<svg xmlns="http://www.w3.org/2000/svg" height="40" viewBox="0 -960 960 960" width="40"><path d="m422.775-318.638 281.616-281.855-52.674-52.674-228.942 228.943L306.5-540.5l-52.007 52.007 168.282 169.855ZM189.058-113.304q-31.249 0-53.501-22.253-22.253-22.252-22.253-53.501v-581.884q0-31.314 22.253-53.614 22.252-22.299 53.501-22.299h186.051q9.181-35.493 38.224-57.747 29.044-22.253 66.667-22.253 37.623 0 66.667 22.253 29.043 22.254 38.224 57.747h186.051q31.314 0 53.614 22.299 22.299 22.3 22.299 53.614v581.884q0 31.249-22.299 53.501-22.3 22.253-53.614 22.253H189.058Zm0-75.754h581.884v-581.884H189.058v581.884ZM480-793.073q14.496 0 24.712-10.216T514.928-828q0-14.496-10.216-24.712T480-862.928q-14.496 0-24.712 10.216T445.072-828q0 14.495 10.216 24.711T480-793.073ZM189.058-189.058v-581.884 581.884Z"/></svg>