<svg xmlns="http://www.w3.org/2000/svg" height="40" viewBox="0 -960 960 960" width="40"><path d="M688.79-70.195v-120h-120v-75.913h120v-120h75.754v120h120v75.913h-120v120H688.79Zm-499.732-83.109q-30.994 0-53.374-22.38-22.38-22.38-22.38-53.374v-515.218q0-31.059 22.38-53.486 22.38-22.427 53.374-22.427h54.275v-66.666h74.544v66.666h244.246v-66.666h74.544v66.666h54.275q31.06 0 53.486 22.427 22.427 22.427 22.427 53.486v282.11q-19.217-3.609-38.036-3.729-18.819-.119-37.877 2.692v-103.464H189.058v337.609h300.051q-.797 19.058 2.283 37.877 3.079 18.819 9.637 37.877H189.058Zm0-480.029h501.884v-110.943H189.058v110.943Zm0 0v-110.943 110.943Z"/></svg>