<svg xmlns="http://www.w3.org/2000/svg" height="40" viewBox="0 -960 960 960" width="40"><path d="M326.934-211.18q-30.994 0-53.374-22.38-22.38-22.38-22.38-53.374v-528.552q0-31.059 22.38-53.486 22.38-22.427 53.374-22.427h408.552q31.059 0 53.486 22.427 22.427 22.427 22.427 53.486v528.552q0 30.994-22.427 53.374-22.427 22.38-53.486 22.38H326.934Zm0-75.754h408.552v-528.552H326.934v528.552ZM184.514-68.601q-31.059 0-53.486-22.427-22.427-22.427-22.427-53.486V-748.82h75.913v604.306H668.82v75.913H184.514Zm142.42-218.333v-528.552 528.552Z"/></svg>