<svg xmlns="http://www.w3.org/2000/svg" height="40" viewBox="0 -960 960 960" width="40"><path d="M479.958-117.051q-151.318 0-257.113-105.794Q117.051-328.64 117.051-479.958q0-151.317 105.807-257.274Q328.665-843.188 480-843.188q9.442 0 19.464.547 10.021.547 23.369 1.88-35.275 31.957-55.46 77.634-20.185 45.678-20.185 96.75 0 91.428 64.093 155.428t155.654 64q51.087 0 96.717-19.065 45.631-19.065 77.348-52.5 1.094 12.01 1.641 20.884.547 8.874.547 17.377 0 151.289-105.956 257.246-105.957 105.956-257.274 105.956Zm.042-75.753q96.739 0 170.885-57.182 74.145-57.181 98.384-138.188-21.261 8.203-45.126 12.311-23.865 4.109-47.331 3.631-116.663-3.428-198.748-84.995-82.085-81.567-85.832-199.824-.239-20.408 3.417-43.389 3.656-22.981 13.272-50.829-85.435 29.145-140.776 104.29Q192.804-571.833 192.804-480q0 119.567 83.815 203.381Q360.433-192.804 480-192.804Zm-8.63-279.232Z"/></svg>