<svg xmlns="http://www.w3.org/2000/svg" height="40" viewBox="0 -960 960 960" width="40"><path d="M481.442-244.667q18.304 0 31.228-12.924 12.924-12.924 12.924-31.341 0-18.418-12.924-31.188-12.924-12.771-31.308-12.771t-31.228 12.758q-12.844 12.758-12.844 31.281 0 18.337 12.865 31.261t31.287 12.924Zm-37.485-148.666h67.985q0-27.696 6.873-48.442 6.873-20.747 40.33-49.776 28.775-25.043 42.322-49.86 13.547-24.817 13.547-56.261 0-54.755-36.235-86.447-36.236-31.692-92.967-31.692-52.464 0-90.254 27.369-37.79 27.369-54.268 71.176l61.637 23.491q9.319-24.986 29.379-42.16 20.059-17.174 50.469-17.174 30.863 0 49.2 17.155 18.337 17.154 18.337 42.273 0 20.348-12.308 38.902-12.308 18.555-33.62 36.279-34.029 29.855-47.228 54.29-13.199 24.435-13.199 70.877Zm36.065 320.029q-83.95 0-158.142-31.959-74.193-31.958-129.426-87.191-55.233-55.233-87.191-129.404-31.959-74.171-31.959-158.12 0-84.616 31.959-158.809 31.958-74.193 87.166-129.101t129.39-86.937q74.183-32.03 158.146-32.03 84.629 0 158.841 32.017 74.211 32.018 129.107 86.905 54.897 54.886 86.919 129.086Q886.855-564.648 886.855-480q0 83.972-32.03 158.162-32.029 74.19-86.937 129.403-54.908 55.214-129.079 87.172-74.171 31.959-158.787 31.959ZM480-149.058q138.377 0 234.66-96.516Q810.942-342.089 810.942-480q0-138.377-96.282-234.66-96.283-96.282-234.74-96.282-137.79 0-234.326 96.282-96.536 96.283-96.536 234.74 0 137.79 96.516 234.326Q342.089-149.058 480-149.058ZM480-480Z"/></svg>