<svg xmlns="http://www.w3.org/2000/svg" height="40" viewBox="0 -960 960 960" width="40"><path d="M477.69-113.304q-148.372 0-253.817-102.695-105.446-102.695-110.141-251.335h76.34q4.93 117.012 87.609 197.644 82.68 80.632 200 80.632 122.471 0 207.707-85.794 85.236-85.794 85.236-208.453 0-120.659-85.803-204.148-85.802-83.489-207.14-83.489-66.101 0-124.174 29.619-58.072 29.62-100.355 79.895h101.087v70.094H129.566v-223.688h69.615v99.051q52.544-61.522 124.949-96.203 72.406-34.681 153.551-34.681 76.275 0 143.344 28.764 67.069 28.765 117.231 78.223 50.161 49.458 79.141 115.859 28.98 66.4 28.98 142.676 0 76.275-28.98 143.342-28.98 67.067-79.141 116.859-50.162 49.792-117.231 78.81-67.069 29.018-143.335 29.018Zm121.622-200.435-153.334-152V-682h69.616v187.333l133.442 131.203-49.724 49.725Z"/></svg>