<svg xmlns="http://www.w3.org/2000/svg" height="40" viewBox="0 -960 960 960" width="40"><path d="M483.722-283.094q18.285 0 31.209-12.93t12.924-31.4q0-18.286-12.943-31.21-12.942-12.924-31.307-12.924-18.366 0-31.21 12.943-12.844 12.943-12.844 31.308 0 18.365 12.884 31.289 12.883 12.924 31.287 12.924Zm-36.171-150h66.652q0-15.667 1.793-27.413 1.794-11.747 6.953-22.587 5.16-11.16 13.819-21.819 8.66-10.659 21.849-23.61 31.658-31.658 45.158-56.731 13.5-25.072 13.5-54.616 0-54.115-35.065-85.576-35.065-31.46-92.95-31.46-53.973 0-91.515 26.808t-54.194 71.714l61.637 24.688q11.747-26.391 32.439-42.195 20.692-15.805 49.556-15.805 28.687 0 45.705 14.948 17.018 14.948 17.018 40.04 0 18.411-10.88 36.56-10.881 18.148-34.25 40.414-17.558 15.807-28.298 28.918-10.739 13.111-17.739 27.794-6.282 14.495-8.735 30.918-2.453 16.422-2.453 39.01ZM480-30.434l-122.71-122.87H189.058q-30.994 0-53.374-22.714-22.38-22.713-22.38-53.04v-581.884q0-31.06 22.38-53.486 22.38-22.427 53.374-22.427h581.884q30.393 0 53.153 22.427 22.76 22.426 22.76 53.486v581.884q0 30.327-22.76 53.04-22.76 22.714-53.153 22.714H602.87L480-30.434ZM189.058-229.059h198.893L480-136.999l92.218-92.059h198.724v-581.884H189.058v581.884ZM480-518Z"/></svg>