<svg xmlns="http://www.w3.org/2000/svg" height="40" viewBox="0 -960 960 960" width="40"><path d="m806.855-258.152-75.913-76.152V-567.5H497.586l-75.753-75.913h178.696v-84.181q0-50.731-36.051-86.243-36.051-35.511-87.336-35.511-51.221 0-86.559 35.354-35.337 35.354-35.337 85.881V-710l-66.579-66.579q14.369-65.725 67.154-107.204 52.786-41.478 121.606-41.478 82.94 0 140.898 57.377 57.957 57.377 57.957 139.732v84.739h54.66q31.56 0 53.736 22.177 22.177 22.177 22.177 53.736v309.348ZM856.356 6.892l-90.155-90.051q-8.976 4.384-17.276 6.84-8.299 2.457-17.983 2.457H229.058q-31.494 0-53.624-22.214-22.13-22.214-22.13-53.54V-567.5q0-26.958 16.816-47.327 16.815-20.369 39.655-24.861L-.001-849.226l49.485-48.978L905.602-41.847l-49.246 48.74ZM699.848-149.616 536.572-312.891q-11 10.84-24.659 16.253-13.659 5.413-29.674 5.413-32.333 0-54.5-21.913-22.166-21.913-22.166-53.928 0-16.492 5.666-30.405 5.667-13.913 16.667-24.754L281.536-567.5h-52.478v417.884h470.79ZM491.145-358.558Zm122.746-92.797Z"/></svg>