<svg xmlns="http://www.w3.org/2000/svg" height="40" viewBox="0 -960 960 960" width="40"><path d="M234.101-74.101V-249.37q-56.92-52.797-88.46-123.094-31.54-70.297-31.54-147.536 0-152.524 106.692-259.291Q327.484-886.058 479.9-886.058q127.013 0 225.107 74.895 98.095 74.895 127.812 194.808l54.319 215.341q4.891 17.978-6.435 32.445-11.326 14.468-30.203 14.468h-84.442v124.246q0 31.494-22.177 53.624-22.177 22.13-53.736 22.13h-84.087v80h-75.913v-155.754h160v-200h111.203l-41.63-167.681q-23.667-93.645-101.87-153.127-78.203-59.482-177.775-59.482-120.71 0-205.464 83.791t-84.754 204.083q0 62.09 25.437 118.353 25.437 56.263 72.193 99.527l22.37 21.014v209.276h-75.754Zm261.58-368.022ZM446-369.334h66.666l4-45.999q10.667-2.334 19.832-7.975 9.164-5.641 16.167-12.692l43.016 16L628-474.667l-33.333-26q4-12 4-24.666 0-12.667-4-24.667L628-576l-32.319-54.667-42.996 16q-7.185-6.795-16.588-12.231-9.402-5.435-19.418-8.435l-4.013-46H446l-4 46q-10 3-19.389 8.435-9.389 5.436-16.564 12.231l-42.902-16L330.667-576 364-550q-4 12-4 24.667 0 12.666 4 24.666l-33.333 26L363.145-420l42.902-16q6.99 7.051 16.138 12.692 9.148 5.641 19.815 7.975l4 45.999Zm33.412-89.333q-27.745 0-47.245-19.421-19.501-19.422-19.501-47.167t19.422-47.245Q451.51-592 479.255-592t47.245 19.421q19.5 19.422 19.5 47.167t-19.421 47.245q-19.422 19.5-47.167 19.5Z"/></svg>