<svg xmlns="http://www.w3.org/2000/svg" height="40" viewBox="0 -960 960 960" width="40"><path d="M234.101-74.101V-249.37q-56.92-52.797-88.46-123.094-31.54-70.297-31.54-147.536 0-152.524 106.692-259.291Q327.484-886.058 479.9-886.058q127.013 0 225.107 74.895 98.095 74.895 127.812 194.808l54.319 215.341q4.891 17.978-6.435 32.445-11.326 14.468-30.203 14.468h-84.442v124.246q0 31.494-22.177 53.624-22.177 22.13-53.736 22.13h-84.087v80h-75.913v-155.754h160v-200h111.203l-41.63-167.681q-23.667-93.645-101.87-153.127-78.203-59.482-177.775-59.482-120.71 0-205.464 83.791t-84.754 204.083q0 62.09 25.437 118.353 25.437 56.263 72.193 99.527l22.37 21.014v209.276h-75.754Zm261.58-368.022Zm-17.674 128.5q18.116 0 30.055-12.073Q520-337.769 520-355.616t-12.138-29.92q-12.137-12.073-29.897-12.073-17.759 0-29.855 12.096t-12.096 29.855q0 17.76 12.029 29.897 12.028 12.138 29.964 12.138Zm-31.993-130.391H511q0-26.054 6.739-41.824 6.739-15.771 27.616-38.807 19.594-21.355 35.12-41.735Q596-586.761 596-618.087q0-42.803-33.131-72.358Q529.737-720 480.948-720q-40.658 0-73.796 23.797-33.138 23.797-46.456 62.391l58.455 24.356q7.132-22.24 24.252-35.899 17.12-13.659 37.663-13.659 21.149 0 35.049 11.491 13.899 11.491 13.899 29.436 0 19.335-11.543 35.073-11.544 15.739-29.041 33.553-21.655 22.736-32.535 44.813-10.881 22.076-10.881 60.634Z"/></svg>