<svg xmlns="http://www.w3.org/2000/svg" height="40" viewBox="0 -960 960 960" width="40"><path d="M188.818-73.304q-30.326 0-52.92-22.766t-22.594-52.748v-510.335q0-30.392 22.594-53.033 22.594-22.64 52.92-22.64h54.9v-193.145h472.485v193.145h54.979q30.048 0 52.861 22.64 22.812 22.641 22.812 53.033v510.335q0 29.982-22.812 52.748-22.813 22.766-52.861 22.766H188.818Zm130.653-661.522H640.29v-117.392H319.471v117.392ZM189.058-149.058h581.884v-509.856H189.058v509.856Zm290.904-56.667q82.263 0 140.281-57.914 58.018-57.915 58.018-140.363 0-81.969-57.98-140.107-57.981-58.137-140.243-58.137-82.263 0-140.281 58.153-58.018 58.154-58.018 140.124 0 82.447 57.98 140.346 57.981 57.898 140.243 57.898Zm.072-55.724q-59.194 0-100.882-41.674t-41.688-100.895q0-58.743 41.673-100.464 41.674-41.721 100.776-41.721t100.703 41.701q41.601 41.701 41.601 100.483 0 59.194-41.639 100.882-41.64 41.688-100.544 41.688Zm45.647-66.703 29.913-30.073-54.239-54.319v-92.478h-42.949v109.594l67.275 67.276ZM480-403.986Z"/></svg>