<svg xmlns="http://www.w3.org/2000/svg" height="40" viewBox="0 -960 960 960" width="40"><path d="M353.862-853.334v-72.804h252.276v72.804H353.862Zm89.856 450.247h72.564v-233.891h-72.564v233.891Zm36.245 334.616q-75.632 0-142.319-28.983-66.687-28.984-116.575-78.816-49.888-49.831-78.826-116.504-28.939-66.673-28.939-142.29 0-75.617 28.96-142.302 28.961-66.685 78.845-116.599 49.885-49.914 116.568-78.945Q404.359-801.942 480-801.942q65.812 0 124.862 21.667 59.051 21.666 106.624 61.239l55.058-55.058 51.369 51.21-55.058 55.058q36.906 43.732 60.453 101.329 23.547 57.598 23.547 131.41 0 75.651-29.002 142.354-29.003 66.703-78.914 116.512-49.91 49.809-116.627 78.78-66.718 28.97-142.349 28.97Zm.01-75.913q121.23 0 206.1-84.722 84.869-84.723 84.869-205.954 0-121.23-84.842-206.1-84.842-84.869-206.073-84.869-121.23 0-206.1 84.842-84.869 84.842-84.869 206.073 0 121.23 84.842 205.98 84.842 84.75 206.073 84.75ZM480-434.42Z"/></svg>