<svg xmlns="http://www.w3.org/2000/svg" height="40" viewBox="0 -960 960 960" width="40"><path d="m795.522-251.173-56.08-55.841q13.964-25.758 22.732-58.609 8.768-32.852 8.768-69.464 0-121.242-84.839-206.092-84.839-84.85-206.065-84.85-35.56 0-68.872 8.268t-59.493 22.899l-56.587-56.507q41.037-24.906 88.56-37.74 47.523-12.833 96.354-12.833 66.449 0 125.278 21.667 58.829 21.666 106.208 61.239l55.058-55.058 51.369 51.21-55.058 55.058q42.667 49.348 63.333 108.819 20.667 59.471 20.667 123.864 0 48.506-12.58 95.071-12.579 46.565-38.753 88.899Zm-279.24-278.841v-106.964h-66.746v39.82l66.746 67.144ZM801.551-47.471l-97.826-97.667q-47.952 37-103.994 56.834-56.042 19.833-119.807 19.833-75.598 0-142.254-29.018-66.656-29.018-116.572-78.815-49.917-49.797-78.855-116.496-28.939-66.698-28.939-142.344 0-60.928 18.5-116.812 18.5-55.885 58.167-107.095L54.514-794.507 104-843.754 851.036-96.956l-49.485 49.485Zm-321.475-96.913q47.794 0 90.795-14.287 43.001-14.288 79.905-41.749L245.145-606.45q-27.551 36.602-41.819 80.819-14.268 44.218-14.268 90.544 0 121.242 84.872 205.973 84.873 84.73 206.146 84.73Zm-126.214-708.95v-72.804h252.276v72.804H353.862Zm94.558 449.399Zm97.304-96.97Z"/></svg>