<svg xmlns="http://www.w3.org/2000/svg" height="40" viewBox="0 -960 960 960" width="40"><path d="m342.623-51.47-77.514-132.044-151.856-32.051 16.479-150.285L31.232-480l98.5-113.552-16.479-150.376 151.933-31.891 77.379-132.71 137.486 61.812 137.485-61.812 78.01 132.71 151.201 31.891-16.479 150.376L928.768-480l-98.5 114.15 16.479 150.285-151.189 32.051-78.022 132.043L480-113.254 342.623-51.471Zm33.038-98.146 104.316-44.517 106.987 44.517 62.775-97.869 113.551-28.348-11.014-115.9 77.63-88.281-77.63-90.283 11.014-115.87-113.551-26.348-64.721-97.869-104.989 44.5-106.993-44.5-62.73 97.908-113.437 26.238 10.855 115.941L130.094-480l77.63 88.297-10.855 117.944 113.407 26.237 65.385 97.906ZM480-480Zm-42.667 138.152 228.819-227.485-51.058-48.739-177.761 176.587-91.761-94.24-51.724 51.058 143.485 142.819Z"/></svg>